<svg xmlns="http://www.w3.org/2000/svg" width="20.62" height="16.126" viewBox="0 0 20.62 16.126">
  <g id="tag" transform="translate(0 -53.064)">
    <path id="Path_14103" data-name="Path 14103" d="M5.562,68.727a1.584,1.584,0,0,0,2.24,0l7.668-7.668a2.246,2.246,0,0,0,.5-.762,8.062,8.062,0,0,0,2.181.326c1.634-.008,2.176-.724,2.354-1.152s.3-1.313-.843-2.481l-.038-.038A9.167,9.167,0,0,0,16.706,55.1c-.216-.089-.432-.169-.644-.246v-.013a1.733,1.733,0,0,0-1.711-1.711l-4.594-.064a2.234,2.234,0,0,0-1.622.661L.464,61.393a1.584,1.584,0,0,0,0,2.24Zm5.911-12.919A1.31,1.31,0,0,1,13.7,56.926a9.14,9.14,0,0,0,1.749.953c.229.093.449.178.661.25l-.025-1.846.11.047A7.981,7.981,0,0,1,18.675,57.9l.025.025c.55.563.61.923.563,1.033-.144.343-1.689.648-4.035-.33a9.056,9.056,0,0,1-1.85-1.029c-.017.021-.038.042-.055.064a1.308,1.308,0,1,1-1.85-1.85Z" transform="translate(0 0)" fill="#333"/>
  </g>
</svg>
