<svg xmlns="http://www.w3.org/2000/svg" width="18.714" height="16.375" viewBox="0 0 18.714 16.375">
  <path id="car_1_" data-name="car (1)" d="M17.3,6.043,15.991,1.668A2.325,2.325,0,0,0,13.75,0H4.964A2.325,2.325,0,0,0,2.723,1.668L1.411,6.043A2.341,2.341,0,0,0,0,8.188v4.679a1.17,1.17,0,0,0,1.17,1.17h0v1.17a1.17,1.17,0,0,0,1.17,1.17h1.17a1.17,1.17,0,0,0,1.17-1.17v-1.17h9.358v1.17a1.17,1.17,0,0,0,1.17,1.17h1.17a1.17,1.17,0,0,0,1.17-1.17v-1.17h0a1.17,1.17,0,0,0,1.17-1.17V8.187A2.341,2.341,0,0,0,17.3,6.043Zm-12.34-3.7H13.75L14.8,5.848H3.911L4.964,2.339Zm-.286,8.772a1.17,1.17,0,1,1,1.17-1.17A1.17,1.17,0,0,1,4.679,11.112Zm9.357,0a1.17,1.17,0,1,1,1.17-1.17A1.17,1.17,0,0,1,14.036,11.112Z" fill="#333"/>
</svg>
