<svg xmlns="http://www.w3.org/2000/svg" width="31.385" height="31.385" viewBox="0 0 31.385 31.385">
  <path id="Forma_1" data-name="Forma 1" d="M32.385,6.231A5.421,5.421,0,0,0,27.154,1H6.231A5.421,5.421,0,0,0,1,6.231V27.153a5.421,5.421,0,0,0,5.231,5.231H16.692V20.528s-2.877,1.308-3.836,0,0-5.231,0-5.231h3.836V13.26c0-3.515,2.639-6.68,5.885-6.68h4.228V11.81H22.577c-.463,0-1,.562-1,1.4V15.3h5.231v5.231H21.574V32.385h5.579a5.421,5.421,0,0,0,5.231-5.231Z" transform="translate(-1 -1)" fill="#fff"/>
</svg>
