<svg xmlns="http://www.w3.org/2000/svg" width="20.07" height="15.981" viewBox="0 0 20.07 15.981">
  <g id="Group_8921" data-name="Group 8921" transform="translate(-888.5 -298.886)">
    <g id="for-rent" transform="translate(888.5 298.886)">
      <g id="Group_8920" data-name="Group 8920" transform="translate(0 0)">
        <g id="Group_8919" data-name="Group 8919" transform="translate(0 0)">
          <path id="Path_14110" data-name="Path 14110" d="M69.931,298.859h-.6v1.2h.6a.6.6,0,0,0,0-1.2Z" transform="translate(-66.221 -288.164)" fill="#333"/>
          <path id="Path_14111" data-name="Path 14111" d="M18.245,55.579h-1.41l-6.8-7.771-6.8,7.771H1.825A1.825,1.825,0,0,0,0,57.4v4.561a1.825,1.825,0,0,0,1.825,1.825H18.245a1.825,1.825,0,0,0,1.825-1.825V57.4A1.825,1.825,0,0,0,18.245,55.579Zm-13,6.386H3.925l-.665-1.14h-.3v1.14H1.825V57.4H3.535a1.707,1.707,0,0,1,.895,3.163Zm4.561-3.421H7.526v.57H9.237v1.14H7.526v.57H9.807v1.14H6.956a.57.57,0,0,1-.57-.57V57.973a.57.57,0,0,1,.57-.57H9.807v1.14Zm4.157,3.4a.584.584,0,0,1-.166.024.568.568,0,0,1-.473-.254l-1.237-1.854v2.107h-1.14V57.973a.57.57,0,0,1,1.045-.317l1.235,1.855V57.4h1.14v3.991h0A.572.572,0,0,1,13.964,61.941Zm-8.3-6.362,4.375-5,4.375,5Zm13.27,2.965h-1.14v3.421h-1.14V58.544h-1.14V57.4H18.93v1.14Z" transform="translate(0 -47.808)" fill="#333"/>
        </g>
      </g>
    </g>
    <rect id="Rectangle_5485" data-name="Rectangle 5485" width="18.23" height="6.765" transform="translate(889.39 307.391)" fill="#333"/>
  </g>
</svg>
