<svg xmlns="http://www.w3.org/2000/svg" width="17.982" height="16.124" viewBox="0 0 17.982 16.124">
  <g id="Group_8910" data-name="Group 8910" transform="translate(-898.398 -220.125)">
    <g id="Group_8909" data-name="Group 8909" transform="translate(898.398 220.125)">
      <rect id="Rectangle_2524" width="12.179" height="5.779" transform="translate(4.101 8.731)" fill="#333"/>
      <path id="Path_14090" data-name="Path 14090" d="M100.3,6.228,99.115,5.047a.228.228,0,0,0-.186-.062H85.383V2.81c0-.062-.062-.124-.062-.186L84.14,1.443a.3.3,0,0,0-.435,0L82.524,2.624a.228.228,0,0,0-.062.186V8.465h.621V2.934l.87-.87.87.87V16.853h-1.8v-8.7H82.4v9.01a.294.294,0,0,0,.311.311h2.423a.294.294,0,0,0,.311-.311V7.905h2.113v2.113h-.5a.69.69,0,0,0-.683.683v4.66a.69.69,0,0,0,.683.683H98.307a.69.69,0,0,0,.683-.683V12.5h-.621v2.858a.061.061,0,0,1-.062.062H87a.061.061,0,0,1-.062-.062h0V10.7A.061.061,0,0,1,87,10.639h.5v.621h.621v-.621h8.948v.621h.621v-.621h.5a.061.061,0,0,1,.062.062h0V12.69h.621V10.7a.69.69,0,0,0-.683-.683h-.5V7.905h1.181c.062,0,.124-.062.186-.062l1.181-1.181A.266.266,0,0,0,100.3,6.228Zm-3.169,3.79h-9.01V7.905h8.948l.062,2.113ZM98.8,7.346H85.445v-1.8H98.8l.87.87Zm-8.885,5.282v-.435a.69.69,0,0,0-.683-.683H88.8a.69.69,0,0,0-.684.683v2.3h.621V13.5l.621.808v.186h.621v-.311a.228.228,0,0,0-.062-.186l-.559-.746A.574.574,0,0,0,89.918,12.628Zm-.621,0a.061.061,0,0,1-.062.062h-.5v-.5a.061.061,0,0,1,.062-.062h.435a.061.061,0,0,1,.062.062Zm2.734-.5v-.621H90.85a.294.294,0,0,0-.311.311v2.361a.294.294,0,0,0,.311.311h1.181V13.87h-.87v-.621h.621v-.621h-.621v-.621Zm1.491-.435a.342.342,0,0,0-.311-.186H92.9a.294.294,0,0,0-.311.311v2.672h.621V12.628l.621,1.616a.342.342,0,0,0,.311.186h.311a.294.294,0,0,0,.311-.311V11.447h-.621v1.864Zm2.983,2.8V12.068h.621v-.621h-1.8v.621h.621v2.423ZM87.557,6.1h.621v.621h-.621Zm9.569,0h.621v.621h-.621ZM83.643,4.923h.621v.621h-.621Zm0,2.423h.621v.621h-.621Z" transform="translate(-82.4 -1.35)" fill="#333"/>
    </g>
    <path id="Path_14104" data-name="Path 14104" d="M-12777-23148.1v-14.08l1.192-1.176,1.138,1.176v14.08Z" transform="translate(13675.773 23383.803)" fill="#333"/>
    <path id="Path_14105" data-name="Path 14105" d="M-12773.691-23157.49h14.051l1.269,1.2-1.269,1.07h-14.051Z" transform="translate(13674.52 23381.582)" fill="#333"/>
  </g>
</svg>
