<svg xmlns="http://www.w3.org/2000/svg" width="32.234" height="32.234" viewBox="0 0 32.234 32.234">
  <path id="Forma_1" data-name="Forma 1" d="M14.828,11.121c0-1.612-.967-4.835-3.385-4.835-.967,0-2.1.645-2.1,2.74,0,1.934.967,4.674,3.223,4.674A2.463,2.463,0,0,0,14.828,11.121Zm-.967,7.9h-.484a11.917,11.917,0,0,0-2.9.484,2.934,2.934,0,0,0-2.418,2.74c0,1.773,1.612,3.546,4.835,3.546,2.418,0,3.868-1.612,3.868-3.223C16.762,21.436,15.956,20.63,13.861,19.018ZM29.011,0H3.223A3.233,3.233,0,0,0,0,3.223V29.011a3.233,3.233,0,0,0,3.223,3.223H29.011a3.233,3.233,0,0,0,3.223-3.223V3.223A3.233,3.233,0,0,0,29.011,0ZM11.443,27.722c-4.513,0-6.608-2.579-6.608-4.835a4.247,4.247,0,0,1,2.418-3.868,10.775,10.775,0,0,1,5-1.451,2.139,2.139,0,0,1-.484-1.612,1.453,1.453,0,0,1,.161-.806h-.645a4.926,4.926,0,0,1-5.158-4.835c0-2.74,2.1-5.8,6.608-5.8H19.5L19.018,5,17.89,6.125l-.161.161H16.6a4.862,4.862,0,0,1,1.451,3.546,4.822,4.822,0,0,1-2.579,4.352,1.357,1.357,0,0,0-.645,1.128,1.088,1.088,0,0,0,.645.967,3.523,3.523,0,0,0,.806.484c1.289.967,3.062,2.1,3.062,4.674C19.341,24.337,17.245,27.722,11.443,27.722ZM27.4,16.117H24.176v3.223H22.564V16.117H19.341V14.505h3.223V11.282h1.612v3.223H27.4Z" fill="#fff"/>
</svg>
