<svg xmlns="http://www.w3.org/2000/svg" width="30.402" height="26.833" viewBox="0 0 30.402 26.833">
  <g id="like_1_" data-name="like (1)" transform="translate(-26 -9.124)">
    <path id="Path_14119" data-name="Path 14119" d="M173.845,129.615a1.983,1.983,0,1,1,0,3.966h-.859l-.013.052a1.983,1.983,0,0,1-.45,3.913H171.2a1.983,1.983,0,1,1,0,3.966h-7.108c-3.62,0-4.582-.444-8.094-1.322V126.971c.07-.055,10.575-1.975,10.575-8.328v-.661a1.983,1.983,0,0,1,3.966,0,15.649,15.649,0,0,1-1.322,7.67h5.948a1.983,1.983,0,1,1,0,3.966Z" transform="translate(-121.408 -106.216)" fill="#ffbfab"/>
    <path id="Path_14120" data-name="Path 14120" d="M43.931,263.322V276.54a1.322,1.322,0,0,1-1.322,1.322H36V262h6.609A1.321,1.321,0,0,1,43.931,263.322Z" transform="translate(-9.339 -242.566)" fill="#7bd8e8"/>
    <path id="Path_14122" data-name="Path 14122" d="M106.661,312a.661.661,0,1,0,.661.661A.661.661,0,0,0,106.661,312Z" transform="translate(-74.713 -289.262)"/>
    <path id="Path_14123" data-name="Path 14123" d="M53.759,115.649H48.825a16.6,16.6,0,0,0,1.013-6.309,7.528,7.528,0,0,0-.047-.76,2.643,2.643,0,0,0-5.286.064v.661c0,4.18-5.368,6.529-9.418,7.536a1.985,1.985,0,0,0-1.817-1.191H26.661a.661.661,0,0,0-.661.661v15.862a.661.661,0,0,0,.661.661H33.27a1.985,1.985,0,0,0,1.811-1.177l.934.242a21.437,21.437,0,0,0,6.67.935h7.108a2.642,2.642,0,0,0,2.2-4.113,2.652,2.652,0,0,0,1.327-3.967,2.643,2.643,0,0,0,1.317-3.964,2.644,2.644,0,0,0-.874-5.139Zm-19.828,15.2a.662.662,0,0,1-.661.661H27.322v-14.54H33.27a.662.662,0,0,1,.661.661Zm19.828-11.236h-3.3a.661.661,0,0,0,0,1.322h1.983a1.322,1.322,0,1,1,0,2.644h-3.3a.661.661,0,1,0,0,1.322h1.983a1.322,1.322,0,0,1,0,2.644h-3.3a.661.661,0,0,0,0,1.322h1.983a1.322,1.322,0,1,1,0,2.644H42.686a20.163,20.163,0,0,1-6.336-.892q-.5-.13-1.1-.284V118.163c4.783-1.139,10.575-3.92,10.575-8.858v-.661a1.322,1.322,0,0,1,2.644,0v0a15.514,15.514,0,0,1-1.079,7.006H45.167a.661.661,0,1,0,0,1.322h8.592a1.322,1.322,0,0,1,0,2.644Z" transform="translate(0 -96.876)"/>
    <path id="Path_14124" data-name="Path 14124" d="M106.661,352a.661.661,0,0,0-.661.661v5.287a.661.661,0,1,0,1.322,0v-5.287A.661.661,0,0,0,106.661,352Z" transform="translate(-74.713 -326.618)"/>
  </g>
</svg>
