<svg xmlns="http://www.w3.org/2000/svg" width="31.385" height="31.385" viewBox="0 0 31.385 31.385">
  <path id="Forma_1" data-name="Forma 1" d="M30.067,1H3.319A2.284,2.284,0,0,0,1,3.249V30.135a2.285,2.285,0,0,0,2.319,2.249H30.067a2.284,2.284,0,0,0,2.318-2.249V3.249A2.284,2.284,0,0,0,30.067,1ZM10.515,27.271H5.773V13.1h4.742ZM8.144,11.166H8.112a2.456,2.456,0,1,1,.062-4.9,2.457,2.457,0,1,1-.03,4.9ZM27.608,27.271H22.868V19.69c0-1.905-.687-3.205-2.4-3.205a2.589,2.589,0,0,0-2.432,1.723,3.162,3.162,0,0,0-.158,1.148s1.185,5.936,0,7.915-4.74,0-4.74,0,.062-12.841,0-14.17h4.74V15.11a4.708,4.708,0,0,1,4.271-2.342c3.12,0,5.46,2.024,5.46,6.379ZM17.847,15.155c.008-.013.02-.029.031-.045v.045Z" transform="translate(-1 -1)" fill="#fff"/>
</svg>
