<svg xmlns="http://www.w3.org/2000/svg" width="17.898" height="15.388" viewBox="0 0 17.898 15.388">
  <g id="paw" transform="translate(-0.001 -35.905)">
    <g id="Group_8938" data-name="Group 8938" transform="translate(2.935 42.568)">
      <g id="Group_8937" data-name="Group 8937" transform="translate(0 0)">
        <path id="Path_14125" data-name="Path 14125" d="M94.246,228.751a5.2,5.2,0,0,0-8.572,0,7.228,7.228,0,0,0-1.729,4.406,1.968,1.968,0,0,0,.641,1.6,2.414,2.414,0,0,0,1.592.468,12.211,12.211,0,0,0,2.106-.266,10.367,10.367,0,0,1,1.676-.224,9.759,9.759,0,0,1,1.538.212c1.374.255,2.932.544,3.832-.2a1.95,1.95,0,0,0,.645-1.584A7.227,7.227,0,0,0,94.246,228.751Z" transform="translate(-83.945 -226.496)" fill="#666"/>
      </g>
    </g>
    <g id="Group_8940" data-name="Group 8940" transform="translate(9.269 35.905)">
      <g id="Group_8939" data-name="Group 8939" transform="translate(0 0)">
        <path id="Path_14126" data-name="Path 14126" d="M269.231,36.928a1.977,1.977,0,0,0-3.462,0,4.193,4.193,0,0,0,0,4.413,1.977,1.977,0,0,0,3.462,0,4.193,4.193,0,0,0,0-4.413Z" transform="translate(-265.141 -35.906)" fill="#666"/>
      </g>
    </g>
    <g id="Group_8942" data-name="Group 8942" transform="translate(3.913 35.905)">
      <g id="Group_8941" data-name="Group 8941" transform="translate(0 0)">
        <path id="Path_14127" data-name="Path 14127" d="M116.006,36.927a1.977,1.977,0,0,0-3.462,0,4.193,4.193,0,0,0,0,4.413,1.977,1.977,0,0,0,3.462,0,4.193,4.193,0,0,0,0-4.413Z" transform="translate(-111.916 -35.905)" fill="#666"/>
      </g>
    </g>
    <g id="Group_8944" data-name="Group 8944" transform="translate(13.891 40.66)">
      <g id="Group_8943" data-name="Group 8943" transform="translate(0 0)">
        <path id="Path_14128" data-name="Path 14128" d="M401.253,173.248a1.8,1.8,0,0,0-1.072-1.236,1.685,1.685,0,0,0-1.314.074,2.7,2.7,0,0,0-1.341,1.585,2.923,2.923,0,0,0-.073,1.77,1.8,1.8,0,0,0,1.072,1.236,1.577,1.577,0,0,0,.556.1,1.79,1.79,0,0,0,.758-.174,2.7,2.7,0,0,0,1.341-1.585h0A2.923,2.923,0,0,0,401.253,173.248Z" transform="translate(-397.35 -171.912)" fill="#666"/>
      </g>
    </g>
    <g id="Group_8946" data-name="Group 8946" transform="translate(0.001 40.659)">
      <g id="Group_8945" data-name="Group 8945" transform="translate(0 0)">
        <path id="Path_14129" data-name="Path 14129" d="M3.832,173.671a2.7,2.7,0,0,0-1.341-1.585,1.685,1.685,0,0,0-1.314-.074A1.8,1.8,0,0,0,.1,173.248a2.923,2.923,0,0,0,.073,1.77h0A2.7,2.7,0,0,0,1.519,176.6a1.789,1.789,0,0,0,.758.174,1.577,1.577,0,0,0,.556-.1A1.8,1.8,0,0,0,3.9,175.441,2.924,2.924,0,0,0,3.832,173.671Z" transform="translate(-0.001 -171.912)" fill="#666"/>
      </g>
    </g>
  </g>
</svg>
