<svg xmlns="http://www.w3.org/2000/svg" width="21.599" height="19.8" viewBox="0 0 21.599 19.8">
  <g id="image" transform="translate(0 -0.492)">
    <path id="Path_8871" data-name="Path 8871" d="M5.625,157.886a3.37,3.37,0,0,1-3.188-2.3l-.031-.1a3.285,3.285,0,0,1-.156-.976v-6.136L.066,155.663A2.044,2.044,0,0,0,1.5,158.143l13.917,3.727a2.064,2.064,0,0,0,.518.067,2.007,2.007,0,0,0,1.945-1.472l.811-2.578Zm0,0" transform="translate(0 -141.644)" fill="#fff"/>
    <path id="Path_8872" data-name="Path 8872" d="M151.12,68.092a1.8,1.8,0,1,0-1.8-1.8A1.8,1.8,0,0,0,151.12,68.092Zm0,0" transform="translate(-143.021 -61.3)" fill="#fff"/>
    <path id="Path_8873" data-name="Path 8873" d="M101.07.492H87.57a2.253,2.253,0,0,0-2.25,2.25v9.9a2.253,2.253,0,0,0,2.25,2.25h13.5a2.253,2.253,0,0,0,2.25-2.25v-9.9a2.253,2.253,0,0,0-2.25-2.25Zm-13.5,1.8h13.5a.45.45,0,0,1,.45.45V9.131L98.677,5.814a1.612,1.612,0,0,0-1.207-.553,1.573,1.573,0,0,0-1.2.568L92.925,9.84,91.836,8.754a1.58,1.58,0,0,0-2.232,0L87.12,11.237V2.742A.45.45,0,0,1,87.57,2.292Zm0,0" transform="translate(-81.721 0)" fill="#fff"/>
  </g>
</svg>
