<svg xmlns="http://www.w3.org/2000/svg" width="18.292" height="18.292" viewBox="0 0 18.292 18.292">
  <g id="money_6_" data-name="money (6)" transform="translate(-0.001 -0.006)">
    <g id="Group_8912" data-name="Group 8912" transform="translate(0.001 8.5)">
      <g id="Group_8911" data-name="Group 8911">
        <path id="Path_14106" data-name="Path 14106" d="M.25,238.426a.381.381,0,0,0-.226.488l.239.659,1.822-1.822Z" transform="translate(-0.001 -237.75)" fill="#333"/>
      </g>
    </g>
    <g id="Group_8914" data-name="Group 8914" transform="translate(1.975 15.029)">
      <g id="Group_8913" data-name="Group 8913">
        <path id="Path_14107" data-name="Path 14107" d="M55.257,420.513l1.1,3.018a.377.377,0,0,0,.2.215.383.383,0,0,0,.161.036.372.372,0,0,0,.132-.024l1.211-.447Z" transform="translate(-55.257 -420.513)" fill="#333"/>
      </g>
    </g>
    <g id="Group_8916" data-name="Group 8916" transform="translate(10.175 8.999)">
      <g id="Group_8915" data-name="Group 8915">
        <path id="Path_14108" data-name="Path 14108" d="M292.878,255.177l-1.256-3.453-3.014,3.014,1.494-.55a.381.381,0,0,1,.264.715l-1.9.7a.381.381,0,0,1-.489-.226s0,0,0-.007l-3.194,3.194,7.869-2.9A.38.38,0,0,0,292.878,255.177Z" transform="translate(-284.783 -251.724)" fill="#333"/>
      </g>
    </g>
    <g id="Group_8918" data-name="Group 8918" transform="translate(0.001 0.006)">
      <g id="Group_8917" data-name="Group 8917" transform="translate(0)">
        <path id="Path_14109" data-name="Path 14109" d="M18.2,6.215,12.1.117a.381.381,0,0,0-.539,0L.13,11.55a.381.381,0,0,0,0,.539l6.1,6.1A.377.377,0,0,0,6.5,18.3a.383.383,0,0,0,.27-.111L18.2,6.754A.382.382,0,0,0,18.2,6.215ZM4.48,10.565,2.956,12.089a.381.381,0,0,1-.54-.539L3.94,10.026a.381.381,0,0,1,.54.539Zm6.581.484a1.439,1.439,0,0,1-1.044.4A3.149,3.149,0,0,1,7.9,10.436a3.492,3.492,0,0,1-.952-1.622,1.592,1.592,0,0,1,.339-1.542,1.588,1.588,0,0,1,1.542-.339,3.485,3.485,0,0,1,1.622.952C11.507,8.943,11.777,10.333,11.061,11.049Zm4.851-4.295L14.388,8.279a.381.381,0,1,1-.54-.539l1.524-1.524a.381.381,0,0,1,.54.539Z" transform="translate(-0.019 -0.006)" fill="#333"/>
      </g>
    </g>
  </g>
</svg>
