<svg xmlns="http://www.w3.org/2000/svg" width="15.29" height="14.628" viewBox="0 0 15.29 14.628">
  <path id="signs" d="M15.249,5.525a1.081,1.081,0,0,0-.946-.672l-3.957-.575L8.576.692A1.081,1.081,0,0,0,7.645,0a1.081,1.081,0,0,0-.931.692L4.944,4.278.987,4.853a1.081,1.081,0,0,0-.946.672,1.081,1.081,0,0,0,.371,1.1L3.275,9.416,2.6,13.358a1.139,1.139,0,0,0,.2.971.857.857,0,0,0,.669.3,1.38,1.38,0,0,0,.638-.176l3.539-1.861,3.54,1.861a1.379,1.379,0,0,0,.638.176h0a.857.857,0,0,0,.669-.3,1.139,1.139,0,0,0,.2-.971l-.676-3.942,2.863-2.791A1.081,1.081,0,0,0,15.249,5.525Zm0,0" fill="#58bf93"/>
</svg>
