<svg id="street-light" xmlns="http://www.w3.org/2000/svg" width="13.711" height="18" viewBox="0 0 13.711 18">
  <path id="Path_14134" data-name="Path 14134" d="M150.527,479.545a2.639,2.639,0,0,1-.527-.053v.616a.527.527,0,0,0,.527.527h2.109a.527.527,0,0,0,.527-.527v-.616a2.638,2.638,0,0,1-.527.053Zm0,0" transform="translate(-144.727 -462.635)" fill="#666"/>
  <path id="Path_14135" data-name="Path 14135" d="M68.965,361H60.527a.527.527,0,1,0,0,1.055h1.582v.527a1.584,1.584,0,0,0,1.582,1.582H65.8a1.584,1.584,0,0,0,1.582-1.582v-.527h1.582a.527.527,0,0,0,0-1.055Zm0,0" transform="translate(-57.891 -348.309)" fill="#666"/>
  <path id="Path_14136" data-name="Path 14136" d="M13.184,5.309h-.675l-.934-2.8a.527.527,0,0,0-.5-.361H8.359a1.6,1.6,0,1,0-3.008,0H2.637a.527.527,0,0,0-.5.361L1.2,5.309H.527a.527.527,0,0,0,0,1.055H13.184a.527.527,0,0,0,0-1.055ZM6.855,2.145A.545.545,0,1,1,7.4,1.6.545.545,0,0,1,6.855,2.145Zm0,0" fill="#666"/>
  <path id="Path_14137" data-name="Path 14137" d="M159.283,211h-2.7l.6,4.219h1.5Zm0,0" transform="translate(-151.077 -203.582)" fill="#666"/>
  <path id="Path_14138" data-name="Path 14138" d="M45.818,215.219l-.6-4.219H42.262l1.205,4.219Zm0,0" transform="translate(-40.776 -203.582)" fill="#666"/>
  <path id="Path_14139" data-name="Path 14139" d="M246.582,215.219h2.351L250.138,211h-2.954Zm0,0" transform="translate(-237.913 -203.582)" fill="#666"/>
</svg>
