<svg xmlns="http://www.w3.org/2000/svg" width="15.408" height="15.388" viewBox="0 0 15.408 15.388">
  <g id="sun-umbrella" transform="translate(0 -0.327)">
    <g id="Group_8965" data-name="Group 8965" transform="translate(0 4.582)">
      <g id="Group_8964" data-name="Group 8964">
        <path id="Path_14143" data-name="Path 14143" d="M5.5,145.607l1.117-.588L5.5,144.431l.673-1.067-1.261.049.049-1.261-1.067.673-.588-1.117-.588,1.117-1.067-.673.049,1.261-1.261-.049.673,1.067L0,145.019l1.117.588-.673,1.067,1.261-.049-.049,1.261,1.067-.673.588,1.117.588-1.117,1.067.673-.049-1.261,1.261.049ZM3.31,146.674a1.655,1.655,0,1,1,1.655-1.655A1.655,1.655,0,0,1,3.31,146.674Z" transform="translate(0 -141.709)" fill="#666"/>
      </g>
    </g>
    <g id="Group_8967" data-name="Group 8967" transform="translate(0 13.909)">
      <g id="Group_8966" data-name="Group 8966">
        <path id="Path_14144" data-name="Path 14144" d="M13.863,452.214a1.605,1.605,0,0,1-2.049,0,2.5,2.5,0,0,0-3.087,0,1.605,1.605,0,0,1-2.048,0,2.412,2.412,0,0,0-1.543-.533,2.412,2.412,0,0,0-1.543.533,1.519,1.519,0,0,1-1.024.369,1.519,1.519,0,0,1-1.024-.369A2.412,2.412,0,0,0,0,451.68v.9a1.519,1.519,0,0,1,1.024.369,2.412,2.412,0,0,0,1.543.533,2.412,2.412,0,0,0,1.543-.533,1.519,1.519,0,0,1,1.024-.369,1.519,1.519,0,0,1,1.024.369,2.5,2.5,0,0,0,3.087,0,1.605,1.605,0,0,1,2.049,0,2.5,2.5,0,0,0,3.087,0,1.52,1.52,0,0,1,1.024-.369v-.9A2.412,2.412,0,0,0,13.863,452.214Z" transform="translate(0 -451.68)" fill="#666"/>
      </g>
    </g>
    <g id="Group_8969" data-name="Group 8969" transform="translate(1.277 0.327)">
      <g id="Group_8968" data-name="Group 8968" transform="translate(0 0)">
        <path id="Path_14145" data-name="Path 14145" d="M56.092,3.614A4.927,4.927,0,0,0,53.707,1.22L53.92.636,53.072.327l-.213.585a4.972,4.972,0,0,0-5.932,3.1l-.182.5.524.1a7.768,7.768,0,0,1,2.405.875l.105.06h.167a4.687,4.687,0,0,1,1.172.149l-2.1,5.779-.16,0a12.421,12.421,0,0,0-6.426,1.779,3.962,3.962,0,0,1,.786.453c.264.186.292.2.505.2s.241-.019.5-.2a3.4,3.4,0,0,1,4.125,0c.264.186.292.2.505.2s.241-.019.5-.2a3.4,3.4,0,0,1,4.125,0c.264.186.292.2.505.2s.241-.019.5-.2a3.963,3.963,0,0,1,.786-.454,12.4,12.4,0,0,0-5.323-1.73L51.966,6A4.689,4.689,0,0,1,53,6.673l.092.079.119.022a7.768,7.768,0,0,1,2.405.875l.464.262.182-.5A4.932,4.932,0,0,0,56.092,3.614Z" transform="translate(-42.429 -0.327)" fill="#666"/>
      </g>
    </g>
  </g>
</svg>
