<svg xmlns="http://www.w3.org/2000/svg" width="14.531" height="17.764" viewBox="0 0 14.531 17.764">
  <g id="walk_1_" data-name="walk (1)" transform="translate(-7.262 -2.72)">
    <path id="Path_14132" data-name="Path 14132" d="M30.1,4.752a2.022,2.022,0,1,1,2.022,2.011A2.022,2.022,0,0,1,30.1,4.752Z" transform="translate(-14.651)" fill="#666"/>
    <path id="Path_14133" data-name="Path 14133" d="M21.686,17.9a.95.95,0,0,1-.85.531.9.9,0,0,1-.405-.1l-2.319-1.144a.946.946,0,0,1-.394-.358l-.871-1.477-1.208,2.8,1.692,2.61a1.151,1.151,0,0,1,.186.631V24.8a1.169,1.169,0,0,1-.412.893,1.187,1.187,0,0,1-.76.276.939.939,0,0,1-.2,0,1.2,1.2,0,0,1-.964-1.2v-3.04l-1.362-2.1a2.222,2.222,0,0,1-.488,0L12.545,21.3a1.179,1.179,0,0,1-.323.405L9.176,24.215a1.187,1.187,0,0,1-.742.262,1.165,1.165,0,0,1-.907-.448,1.147,1.147,0,0,1-.258-.853,1.176,1.176,0,0,1,.427-.792l2.868-2.323,1.047-2.2a2.083,2.083,0,0,1,.147-1.093l1.366-3.169-.914.358L10.939,16.82a.943.943,0,1,1-1.721-.771l1.434-3.226a.91.91,0,0,1,.566-.516l2.459-.914a1.792,1.792,0,0,1,1.488.115.276.276,0,0,1,.133.183,1.531,1.531,0,0,0,1.5,1.233,1.434,1.434,0,0,0,.416-.057.262.262,0,0,1,.244.05,2.685,2.685,0,0,1,.613.717L19.216,15.6l2.076,1.022A.95.95,0,0,1,21.686,17.9Z" transform="translate(0 -5.493)" fill="#666"/>
  </g>
</svg>
