<svg id="bath" xmlns="http://www.w3.org/2000/svg" width="15.78" height="15.722" viewBox="0 0 15.78 15.722">
  <g id="Group_8648" data-name="Group 8648" transform="translate(0 7.832)">
    <g id="Group_8647" data-name="Group 8647">
      <path id="Path_14014" data-name="Path 14014" d="M14.794,255.051H.986a.986.986,0,0,0,0,1.973H14.794a.986.986,0,0,0,0-1.973Z" transform="translate(0 -255.051)" fill="#666"/>
    </g>
  </g>
  <g id="Group_8650" data-name="Group 8650" transform="translate(0.657 9.146)">
    <g id="Group_8649" data-name="Group 8649">
      <path id="Path_14015" data-name="Path 14015" d="M35.55,297.722a.327.327,0,0,0-.406.226l-.026.09H21.994l-.026-.09a.329.329,0,1,0-.632.18l.906,3.172a2.311,2.311,0,0,0,2.212,1.669h8.2a2.31,2.31,0,0,0,2.212-1.669l.906-3.172A.328.328,0,0,0,35.55,297.722Zm-11.1,3.932a.989.989,0,0,1-.948-.715l-.427-1.5a.329.329,0,1,1,.632-.18l.427,1.5a.332.332,0,0,0,.316.239.328.328,0,1,1,0,.657Z" transform="translate(-21.323 -297.709)" fill="#666"/>
    </g>
  </g>
  <g id="Group_8652" data-name="Group 8652" transform="translate(3.287 13.749)">
    <g id="Group_8651" data-name="Group 8651">
      <path id="Path_14016" data-name="Path 14016" d="M107.787,447.087a.33.33,0,0,0-.441.147l-.657,1.315a.329.329,0,1,0,.588.294l.658-1.315A.329.329,0,0,0,107.787,447.087Z" transform="translate(-106.654 -447.053)" fill="#666"/>
    </g>
  </g>
  <g id="Group_8654" data-name="Group 8654" transform="translate(11.178 13.749)">
    <g id="Group_8653" data-name="Group 8653">
      <path id="Path_14017" data-name="Path 14017" d="M363.956,448.552l-.657-1.315a.329.329,0,1,0-.588.294l.658,1.315a.329.329,0,0,0,.294.182.341.341,0,0,0,.147-.034A.33.33,0,0,0,363.956,448.552Z" transform="translate(-362.675 -447.055)" fill="#666"/>
    </g>
  </g>
  <g id="Group_8656" data-name="Group 8656" transform="translate(11.178 0)">
    <g id="Group_8655" data-name="Group 8655">
      <path id="Path_14018" data-name="Path 14018" d="M364.711.949a1.248,1.248,0,0,0-.888.368l-1.043,1.043a.329.329,0,0,0,.465.465l1.043-1.043a.6.6,0,0,1,1.025.423v6.9a.329.329,0,0,0,.658,0V2.2A1.258,1.258,0,0,0,364.711.949Z" transform="translate(-362.683 -0.949)" fill="#666"/>
    </g>
  </g>
  <g id="Group_8658" data-name="Group 8658" transform="translate(9.205 0.986)">
    <g id="Group_8657" data-name="Group 8657">
      <path id="Path_14019" data-name="Path 14019" d="M301.519,33.705l-.657-.657a.326.326,0,0,0-.286-.092l-1.644.27a.328.328,0,0,0-.183.553l1.973,2.032a.329.329,0,0,0,.558-.164L301.608,34A.329.329,0,0,0,301.519,33.705Z" transform="translate(-298.656 -32.951)" fill="#666"/>
    </g>
  </g>
  <g id="Group_8660" data-name="Group 8660" transform="translate(6.575 3.887)">
    <g id="Group_8659" data-name="Group 8659">
      <path id="Path_14020" data-name="Path 14020" d="M214.547,127.163a.329.329,0,0,0-.465,0l-.658.658a.329.329,0,0,0,.465.465l.658-.657A.329.329,0,0,0,214.547,127.163Z" transform="translate(-213.328 -127.067)" fill="#666"/>
    </g>
  </g>
  <g id="Group_8662" data-name="Group 8662" transform="translate(7.89 5.202)">
    <g id="Group_8661" data-name="Group 8661">
      <path id="Path_14021" data-name="Path 14021" d="M257.213,169.829a.329.329,0,0,0-.465,0l-.658.658a.329.329,0,0,0,.465.465l.657-.658A.329.329,0,0,0,257.213,169.829Z" transform="translate(-255.995 -169.733)" fill="#666"/>
    </g>
  </g>
  <g id="Group_8664" data-name="Group 8664" transform="translate(8.547 3.229)">
    <g id="Group_8663" data-name="Group 8663">
      <path id="Path_14022" data-name="Path 14022" d="M278.547,105.829a.329.329,0,0,0-.465,0l-.658.658a.329.329,0,0,0,.465.465l.657-.658A.329.329,0,0,0,278.547,105.829Z" transform="translate(-277.328 -105.733)" fill="#666"/>
    </g>
  </g>
</svg>
