<svg xmlns="http://www.w3.org/2000/svg" width="24.402" height="21.538" viewBox="0 0 24.402 21.538">
  <g id="like_1_" data-name="like (1)" transform="translate(-26 -9.124)">
    <path id="Path_14119" data-name="Path 14119" d="M170.323,126.928a1.591,1.591,0,1,1,0,3.183h-.69l-.01.042a1.591,1.591,0,0,1-.361,3.141H168.2a1.591,1.591,0,1,1,0,3.183h-5.7c-2.905,0-3.678-.356-6.5-1.061v-10.61c.056-.044,8.488-1.585,8.488-6.684v-.53a1.591,1.591,0,0,1,3.183,0,12.561,12.561,0,0,1-1.061,6.156h4.774a1.591,1.591,0,0,1,0,3.183Z" transform="translate(-123.104 -106.346)" fill="#ffbfab"/>
    <path id="Path_14120" data-name="Path 14120" d="M42.366,263.061v10.61a1.061,1.061,0,0,1-1.061,1.061H36V262h5.3A1.061,1.061,0,0,1,42.366,263.061Z" transform="translate(-9.47 -244.601)" fill="#7bd8e8"/>
    <path id="Path_14122" data-name="Path 14122" d="M106.53,312a.53.53,0,1,0,.53.53A.531.531,0,0,0,106.53,312Z" transform="translate(-75.756 -291.948)"/>
    <path id="Path_14123" data-name="Path 14123" d="M48.28,113.745H44.32a13.322,13.322,0,0,0,.813-5.064,6.043,6.043,0,0,0-.037-.61,2.122,2.122,0,0,0-4.243.051v.53c0,3.355-4.308,5.24-7.56,6.049a1.594,1.594,0,0,0-1.459-.956h-5.3a.531.531,0,0,0-.53.53v12.732a.531.531,0,0,0,.53.53h5.3a1.593,1.593,0,0,0,1.454-.945l.75.195a17.206,17.206,0,0,0,5.354.75h5.7a2.121,2.121,0,0,0,1.763-3.3,2.128,2.128,0,0,0,1.065-3.184,2.121,2.121,0,0,0,1.057-3.182,2.122,2.122,0,0,0-.7-4.125Zm-15.915,12.2a.531.531,0,0,1-.53.53H27.061V114.806h4.774a.531.531,0,0,1,.53.53Zm15.915-9.018H45.628a.53.53,0,1,0,0,1.061h1.591a1.061,1.061,0,0,1,0,2.122H44.567a.53.53,0,1,0,0,1.061h1.591a1.061,1.061,0,0,1,0,2.122H43.506a.53.53,0,0,0,0,1.061H45.1a1.061,1.061,0,1,1,0,2.122h-5.7a16.184,16.184,0,0,1-5.086-.716q-.4-.1-.88-.228v-9.771c3.839-.914,8.488-3.147,8.488-7.11v-.53a1.061,1.061,0,0,1,2.122,0v0a12.453,12.453,0,0,1-.866,5.623H41.384a.53.53,0,1,0,0,1.061h6.9a1.061,1.061,0,0,1,0,2.122Z" transform="translate(0 -96.876)"/>
    <path id="Path_14124" data-name="Path 14124" d="M106.53,352a.531.531,0,0,0-.53.53v4.244a.53.53,0,1,0,1.061,0V352.53A.531.531,0,0,0,106.53,352Z" transform="translate(-75.756 -329.827)"/>
  </g>
</svg>
